<!-- icon666.com - MILLIONS vector ICONS FREE --><svg clip-rule="evenodd" fill-rule="evenodd" image-rendering="optimizeQuality" shape-rendering="geometricPrecision" text-rendering="geometricPrecision" viewBox="0 0 1707 1707" xmlns="http://www.w3.org/2000/svg"><g id="Layer_x0020_1"><path d="m1191 209c-20 0-36-16-36-36v-97c0-2-2-3-4-3h-595c-2 0-4 1-4 3v97c0 48-72 48-72 0v-97c0-42 34-76 76-76h595c42 0 76 34 76 76v97c0 20-16 36-36 36z" fill="#d4d4d4"></path><path d="m1190 1707h-673c-113 0-205-92-205-205v-1127c0-26 1083-26 1083 0v1127c0 113-92 205-205 205z" fill="#d4d4d4"></path><path d="m216 193c-6 0-10 4-10 9v143c0 6 4 10 10 10h1275c5 0 10-4 10-10v-143c0-5-5-9-10-9z"></path><path d="m1491 395h-1275c-27 0-50-23-50-50v-143c0-27 23-49 50-49h1275c27 0 49 22 49 49v143c0 27-22 50-49 50z" fill="#e3e3e4"></path><g fill="#686868"><path d="m635 1408h-38c-39 0-70-31-70-70v-614c0-39 31-70 70-70h38c38 0 70 31 70 70v614c0 39-32 70-70 70z"></path><path d="m872 1408h-37c-39 0-71-31-71-70v-614c0-39 32-70 71-70h37c39 0 71 31 71 70v614c0 39-32 70-71 70z"></path><path d="m1110 1408h-38c-39 0-70-31-70-70v-614c0-39 31-70 70-70h38c39 0 70 31 70 70v614c0 39-31 70-70 70z"></path></g></g></svg>